<svg xmlns="http://www.w3.org/2000/svg" width="2029.62" height="202.43" viewBox="0 0 2029.62 202.43">
  <defs>
    <style>
      .a {
        fill: #5f6368;
      }

      .b {
        fill: #4285f4;
      }

      .c {
        fill: #ea4335;
      }

      .d {
        fill: #fbbc04;
      }

      .e {
        fill: #34a853;
      }
    </style>
  </defs>
  <title>GOR_Logo</title>
  <g>
    <path class="a" d="M791.24,135.81q-20.07,20.64-49.92,20.63T691.4,135.81q-20.07-20.63-20.06-50.49T691.4,34.83Q711.46,14.2,741.32,14.2q29.67,0,49.83,20.73t20.16,50.4Q811.31,115.18,791.24,135.81ZM704.33,124.4q15.12,15.31,37,15.31t37-15.31q15.12-15.31,15.12-39.08T778.31,46.24q-15.12-15.31-37-15.31t-37,15.31q-15.12,15.31-15.12,39.08T704.33,124.4Z"/>
    <path class="a" d="M875.76,156.45a39.6,39.6,0,0,1-19.11-4.56A32.28,32.28,0,0,1,844,140.47h-.76l.76,12.93v41.08H826.5V60.22h16.74V73.15H844a32.28,32.28,0,0,1,12.65-11.41,39.6,39.6,0,0,1,19.11-4.56q18.07,0,31.19,14.26t13.12,35.37q0,21.11-13.12,35.37T875.76,156.45Zm-2.85-16a27.83,27.83,0,0,0,20.92-9.22q8.75-9.22,8.75-24.44t-8.75-24.44a28.54,28.54,0,0,0-41.93-.1q-8.66,9.13-8.65,24.53t8.65,24.53A27.87,27.87,0,0,0,872.9,140.47Z"/>
    <path class="a" d="M950.28,36.83a12.36,12.36,0,0,1-21.11-8.75,12.36,12.36,0,1,1,24.72,0A11.92,11.92,0,0,1,950.28,36.83Zm0,116.58h-17.5V60.22h17.5Z"/>
    <path class="a" d="M985.24,60.22V73.15H986q3.8-6.65,12-11.32a34.78,34.78,0,0,1,17.5-4.66q17.3,0,26.43,10.65T1051,96.35v57.05h-17.5V99q0-25.86-23-25.86a21.54,21.54,0,0,0-17.69,8.65A31.41,31.41,0,0,0,986,101.87v51.54H968.5V60.22Z"/>
    <path class="a" d="M1085.68,36.83a12.36,12.36,0,0,1-21.11-8.75,12.36,12.36,0,1,1,24.72,0A11.92,11.92,0,0,1,1085.68,36.83Zm0,116.58h-17.5V60.22h17.5Z"/>
    <path class="a" d="M1112,71.34q13.5-14.17,34.42-14.17t34.42,14.17q13.5,14.17,13.5,35.47t-13.5,35.47q-13.51,14.17-34.42,14.17T1112,142.28q-13.5-14.17-13.5-35.47T1112,71.34Zm13,59.91a29.43,29.43,0,0,0,42.79,0q9-9.22,9-24.44t-9-24.44a29.42,29.42,0,0,0-42.79,0q-9,9.23-9,24.44T1125,131.25Z"/>
    <path class="a" d="M1223.5,60.22V73.15h.76q3.8-6.65,12-11.32a34.78,34.78,0,0,1,17.5-4.66q17.3,0,26.43,10.65t9.13,28.53v57.05h-17.5V99q0-25.86-23-25.86a21.54,21.54,0,0,0-17.69,8.65,31.41,31.41,0,0,0-6.85,20.06v51.54h-17.5V60.22Z"/>
    <path class="a" d="M1354.72,153.41V17.24h46.4a43,43,0,0,1,30,11.51q12.65,11.51,12.65,29a37.72,37.72,0,0,1-9.32,25.2,40.4,40.4,0,0,1-23.2,13.79l-.38.57L1449,152.64v.76h-20.73l-36.7-55.15h-19.4v55.15Zm17.5-71.51h28.15a25.77,25.77,0,0,0,18-6.85,22.41,22.41,0,0,0,7.51-17.31q0-8.94-6.66-16.36T1401.5,34h-29.29Z"/>
    <path class="a" d="M1498.24,156.45q-21.11,0-34.33-14.07t-13.22-35.56q0-20.35,12.84-35t32.8-14.64q20.73,0,33.19,13.5T1542,106.81l-.19,3.23h-73.6q.76,14.08,9.41,22.25a28.54,28.54,0,0,0,20.25,8.18q18.83,0,25.48-16l15.59,6.47a41.77,41.77,0,0,1-15,18.16Q1513.46,156.45,1498.24,156.45Zm25.1-60.86q-.57-8-7.32-15.21T1496,73.15a25.11,25.11,0,0,0-16.83,6.09,31.09,31.09,0,0,0-9.79,16.35Z"/>
    <path class="a" d="M1653.86,153.41H1636l-23.2-71.51-23,71.51h-17.69l-30-93.19h18.26L1581,130.58h.19l23-70.36h18.07l23,70.36h.19L1666,60.22h17.88Z"/>
    <path class="a" d="M1719.61,156.45q-14.83,0-24.82-8.56t-10-22.63q0-15.21,11.79-23.87t29.1-8.65q15.4,0,25.29,5.71V95.78q0-10.27-7-16.45a25.3,25.3,0,0,0-17.31-6.18,26.82,26.82,0,0,0-13.79,3.61,18.63,18.63,0,0,0-8.46,9.89l-16-6.85q3.23-8.37,12.74-15.5t25.1-7.13q17.87,0,29.67,10.46t11.79,29.48v56.29H1751V140.47h-.76Q1739.76,156.45,1719.61,156.45Zm2.85-16q10.84,0,19.68-8.08t8.84-19.11q-7.42-6.08-22.25-6.09-12.74,0-19.21,5.52t-6.47,12.93a12.45,12.45,0,0,0,5.9,10.84A23.5,23.5,0,0,0,1722.46,140.47Z"/>
    <path class="a" d="M1801.87,153.41h-17.5V60.22h16.74V75.43h.76q2.66-7.6,10.93-12.55t16.07-4.94A33.35,33.35,0,0,1,1842,60.22l-6.66,16.35a26.46,26.46,0,0,0-9.32-1.33q-9.51,0-16.83,7.51t-7.32,19.68Z"/>
    <path class="a" d="M1884.6,156.45q-18.07,0-31.19-14.26t-13.12-35.37q0-21.11,13.12-35.37t31.19-14.26a39.62,39.62,0,0,1,19.11,4.56,32.33,32.33,0,0,1,12.65,11.41h.76l-.76-12.93v-43h17.5V153.41h-16.74V140.47h-.76a32.33,32.33,0,0,1-12.65,11.41A39.62,39.62,0,0,1,1884.6,156.45Zm2.85-16a27.88,27.88,0,0,0,21-9.13q8.65-9.13,8.65-24.53t-8.65-24.53a28.54,28.54,0,0,0-41.93.1q-8.75,9.23-8.75,24.44t8.75,24.44A27.82,27.82,0,0,0,1887.45,140.47Z"/>
    <path class="a" d="M1985.66,156.45q-15.6,0-25.77-7.61a45,45,0,0,1-14.93-19l15.59-6.47q7.42,17.5,25.29,17.5,8.17,0,13.41-3.61a11.07,11.07,0,0,0,5.23-9.51q0-9.13-12.74-12.36l-18.83-4.56a44.77,44.77,0,0,1-16.93-8.65q-8-6.37-8-17.21,0-12.36,10.93-20.06t26-7.7A43.27,43.27,0,0,1,2007,62.79a31.64,31.64,0,0,1,13.88,16.07l-15.21,6.28q-5.13-12.36-21.3-12.36A24.86,24.86,0,0,0,1971.2,76q-5.33,3.24-5.33,8.75,0,8,12.36,10.84l18.45,4.37q13.12,3,19.4,10.46a25.23,25.23,0,0,1,6.28,16.74q0,12.55-10.27,20.92T1985.66,156.45Z"/>
  </g>
  <g>
    <path class="b" d="M81.18,156.43C38.71,156.43,3,121.85,3,79.38S38.71,2.33,81.18,2.33c23.5,0,40.22,9.21,52.81,21.24L119.14,38.41a53.68,53.68,0,0,0-38-15c-31,0-55.25,25-55.25,56s24.25,56,55.25,56c20.11,0,31.57-8.08,38.9-15.41,6-6,10-14.66,11.46-26.5H81.18v-21H152a68.21,68.21,0,0,1,1.13,13.16c0,15.79-4.33,35.33-18.23,49.24C121.4,148.91,104.11,156.43,81.18,156.43Z"/>
    <path class="c" d="M262.73,106.82c0,28.57-22,49.61-48.9,49.61s-48.9-21-48.9-49.61c0-28.75,22-49.61,48.9-49.61S262.73,78.06,262.73,106.82Zm-21.4,0c0-17.85-12.73-30.07-27.49-30.07S186.35,89,186.35,106.82c0,17.67,12.73,30.07,27.49,30.07S241.33,124.48,241.33,106.82Z"/>
    <path class="d" d="M372.35,106.82c0,28.57-22,49.61-48.9,49.61s-48.89-21-48.89-49.61c0-28.75,22-49.61,48.89-49.61S372.35,78.06,372.35,106.82Zm-21.4,0c0-17.85-12.73-30.07-27.5-30.07S296,89,296,106.82c0,17.67,12.73,30.07,27.49,30.07S350.95,124.48,350.95,106.82Z"/>
    <path class="b" d="M479.23,60.21v89.08c0,36.64-21.61,51.68-47.17,51.68-24.05,0-38.52-16.16-44-29.32l19-7.89c3.39,8.08,11.65,17.66,25,17.66,16.35,0,26.5-10.15,26.5-29.13v-7.14h-.76c-4.89,6-14.28,11.27-26.12,11.27-24.8,0-47.54-21.61-47.54-49.42,0-28,22.74-49.8,47.54-49.8,11.84,0,21.23,5.26,26.12,11.09h.76V60.21ZM460.06,107c0-17.48-11.65-30.26-26.49-30.26-15,0-27.63,12.78-27.63,30.26,0,17.29,12.59,29.88,27.63,29.88C448.4,136.88,460.06,124.29,460.06,107Z"/>
    <path class="e" d="M517.43,7.59V153.42h-21.8V7.59Z"/>
    <path class="c" d="M603.13,123.17,620,134.44a49.34,49.34,0,0,1-41.34,22c-28.18,0-48.54-21.8-48.54-49.61,0-29.5,20.54-49.61,46.1-49.61,25.74,0,38.34,20.48,42.47,31.57L621,94.41l-66.34,27.44c5.08,10,13,15,24.05,15S597.49,131.44,603.13,123.17Zm-52.05-17.85L595.43,86.9C593,80.7,585.65,76.37,577,76.37,565.92,76.37,550.51,86.14,551.07,105.31Z"/>
  </g>
</svg>
